<svg width="25" height="19" viewBox="0 0 25 19" fill="none" xmlns="http://www.w3.org/2000/svg">
<path d="M20.8585 1.86093C19.3182 1.15417 17.6665 0.633466 15.9395 0.335235C15.908 0.32948 15.8766 0.343864 15.8604 0.372632C15.648 0.750453 15.4127 1.24335 15.2479 1.63077C13.3904 1.35268 11.5424 1.35268 9.72301 1.63077C9.5582 1.23474 9.31435 0.750453 9.10097 0.372632C9.08477 0.344823 9.05335 0.33044 9.0219 0.335235C7.29585 0.632513 5.64411 1.15322 4.10286 1.86093C4.08952 1.86668 4.07808 1.87628 4.07049 1.88874C0.937486 6.56938 0.0792255 11.135 0.500259 15.644C0.502165 15.666 0.514548 15.6871 0.531694 15.7005C2.59876 17.2185 4.60107 18.1401 6.56619 18.7509C6.59764 18.7605 6.63097 18.749 6.65098 18.7231C7.11583 18.0883 7.5302 17.419 7.88549 16.7151C7.90645 16.6739 7.88644 16.625 7.84359 16.6087C7.18632 16.3593 6.56047 16.0553 5.95845 15.7101C5.91083 15.6823 5.90702 15.6142 5.95083 15.5816C6.07752 15.4867 6.20424 15.3879 6.32521 15.2882C6.34709 15.27 6.37759 15.2661 6.40332 15.2776C10.3584 17.0833 14.6401 17.0833 18.5485 15.2776C18.5742 15.2652 18.6047 15.269 18.6276 15.2872C18.7486 15.3869 18.8753 15.4867 19.0029 15.5816C19.0467 15.6142 19.0438 15.6823 18.9962 15.7101C18.3942 16.062 17.7684 16.3593 17.1101 16.6077C17.0673 16.624 17.0482 16.6739 17.0692 16.7151C17.4321 17.418 17.8465 18.0874 18.3028 18.7222C18.3218 18.749 18.3561 18.7605 18.3875 18.7509C20.3622 18.1401 22.3645 17.2185 24.4316 15.7005C24.4497 15.6871 24.4611 15.667 24.463 15.6449C24.9669 10.432 23.619 5.90388 20.8899 1.88969C20.8832 1.87628 20.8718 1.86668 20.8585 1.86093ZM8.47611 12.8985C7.28537 12.8985 6.30424 11.8053 6.30424 10.4627C6.30424 9.12019 7.26635 8.027 8.47611 8.027C9.69537 8.027 10.667 9.12979 10.6479 10.4627C10.6479 11.8053 9.68584 12.8985 8.47611 12.8985ZM16.5062 12.8985C15.3155 12.8985 14.3344 11.8053 14.3344 10.4627C14.3344 9.12019 15.2965 8.027 16.5062 8.027C17.7255 8.027 18.6971 9.12979 18.6781 10.4627C18.6781 11.8053 17.7255 12.8985 16.5062 12.8985Z" fill="#252525"/>
</svg>
